<svg width="22" height="32" viewBox="0 0 22 32" fill="none" xmlns="http://www.w3.org/2000/svg">
<g id="Figma svg" clip-path="url(#clip0_11_333)">
<path id="Vector" d="M10.6667 16C10.6667 13.0845 13.0301 10.7209 15.9457 10.7209C18.8612 10.7209 21.2247 13.0845 21.2247 16C21.2247 18.9155 18.8612 21.279 15.9457 21.279C13.0301 21.279 10.6667 18.9155 10.6667 16Z" fill="#1ABCFE"/>
<path id="Vector_2" d="M0.108582 26.5581C0.108582 23.6426 2.47208 21.2791 5.38762 21.2791H10.6667V26.5581C10.6667 29.4736 8.30317 31.8371 5.38762 31.8371C2.47208 31.8371 0.108582 29.4736 0.108582 26.5581Z" fill="#0ACF83"/>
<path id="Vector_3" d="M10.6667 0.162842V10.7209H15.9457C18.8612 10.7209 21.2247 8.3574 21.2247 5.44187C21.2247 2.52635 18.8612 0.162842 15.9457 0.162842H10.6667Z" fill="#FF7262"/>
<path id="Vector_4" d="M0.108582 5.44188C0.108582 8.3574 2.47208 10.7209 5.38762 10.7209H10.6667V0.162842H5.38762C2.47208 0.162842 0.108582 2.52634 0.108582 5.44188Z" fill="#F24E1E"/>
<path id="Vector_5" d="M0.108582 16C0.108582 18.9155 2.47208 21.279 5.38762 21.279H10.6667V10.7209H5.38762C2.47208 10.7209 0.108582 13.0845 0.108582 16Z" fill="#A259FF"/>
</g>
<defs>
<clipPath id="clip0_11_333">
<rect width="21.3333" height="32" fill="white"/>
</clipPath>
</defs>
</svg>
