<svg width="22" height="22" viewBox="0 0 22 22" fill="none" xmlns="http://www.w3.org/2000/svg">
<g id="mdi:web">
<path id="Vector" d="M15.0442 12.7931C15.1133 12.2233 15.1651 11.6535 15.1651 11.0665C15.1651 10.4794 15.1133 9.90961 15.0442 9.33982H17.9623C18.1004 9.89234 18.1867 10.4708 18.1867 11.0665C18.1867 11.6622 18.1004 12.2406 17.9623 12.7931M13.5162 17.5932C14.0341 16.6349 14.4313 15.5989 14.7075 14.5198H17.2543C16.4179 15.96 15.091 17.051 13.5162 17.5932ZM13.3003 12.7931H9.25997C9.17364 12.2233 9.12184 11.6535 9.12184 11.0665C9.12184 10.4794 9.17364 9.90098 9.25997 9.33982H13.3003C13.378 9.90098 13.4385 10.4794 13.4385 11.0665C13.4385 11.6535 13.378 12.2233 13.3003 12.7931ZM11.2801 17.9385C10.5636 16.9025 9.98516 15.7543 9.6312 14.5198H12.9291C12.5751 15.7543 11.9967 16.9025 11.2801 17.9385ZM7.82685 7.61317H5.30595C6.13375 6.16901 7.45976 5.07628 9.03551 4.53974C8.51751 5.49803 8.12902 6.53401 7.82685 7.61317ZM5.30595 14.5198H7.82685C8.12902 15.5989 8.51751 16.6349 9.03551 17.5932C7.46307 17.0507 6.13892 15.9595 5.30595 14.5198ZM4.59802 12.7931C4.45989 12.2406 4.37356 11.6622 4.37356 11.0665C4.37356 10.4708 4.45989 9.89234 4.59802 9.33982H7.51606C7.44699 9.90961 7.39519 10.4794 7.39519 11.0665C7.39519 11.6535 7.44699 12.2233 7.51606 12.7931M11.2801 4.18577C11.9967 5.22176 12.5751 6.37862 12.9291 7.61317H9.6312C9.98516 6.37862 10.5636 5.22176 11.2801 4.18577ZM17.2543 7.61317H14.7075C14.4373 6.54391 14.0372 5.51175 13.5162 4.53974C15.1047 5.08363 16.4256 6.18005 17.2543 7.61317ZM11.2801 2.43323C6.50597 2.43323 2.64691 6.31818 2.64691 11.0665C2.64691 13.3561 3.55648 15.552 5.17553 17.1711C5.9772 17.9728 6.92892 18.6087 7.97635 19.0425C9.02378 19.4764 10.1464 19.6997 11.2801 19.6997C13.5698 19.6997 15.7657 18.7901 17.3848 17.1711C19.0038 15.552 19.9134 13.3561 19.9134 11.0665C19.9134 9.93273 19.6901 8.8101 19.2562 7.76267C18.8224 6.71523 18.1864 5.76351 17.3848 4.96184C16.5831 4.16017 15.6314 3.52425 14.5839 3.09039C13.5365 2.65653 12.4139 2.43323 11.2801 2.43323Z" fill="black"/>
</g>
</svg>
