<svg width="22" height="22" viewBox="0 0 22 22" fill="none" xmlns="http://www.w3.org/2000/svg">
<g id="mdi:github">
<path id="Vector" d="M11.2801 2.69287C10.1464 2.69287 9.02372 2.91618 7.97629 3.35004C6.92886 3.7839 5.97714 4.41982 5.17547 5.22149C3.55642 6.84053 2.64685 9.03643 2.64685 11.3261C2.64685 15.142 5.12459 18.3795 8.55198 19.5277C8.98365 19.5967 9.12178 19.3291 9.12178 19.096V17.637C6.73037 18.155 6.22101 16.4801 6.22101 16.4801C5.82388 15.4787 5.26272 15.2111 5.26272 15.2111C4.4771 14.6758 5.32315 14.6931 5.32315 14.6931C6.18648 14.7535 6.64404 15.5823 6.64404 15.5823C7.39513 16.8945 8.66422 16.506 9.15631 16.2989C9.23401 15.7377 9.45847 15.3578 9.7002 15.142C7.78363 14.9262 5.77208 14.1837 5.77208 10.8944C5.77208 9.93616 6.10014 9.1678 6.6613 8.55484C6.57497 8.33901 6.27281 7.44115 6.74764 6.27566C6.74764 6.27566 7.47283 6.04257 9.12178 7.15625C9.8038 6.96632 10.5463 6.87136 11.2801 6.87136C12.0139 6.87136 12.7564 6.96632 13.4384 7.15625C15.0873 6.04257 15.8125 6.27566 15.8125 6.27566C16.2874 7.44115 15.9852 8.33901 15.8989 8.55484C16.46 9.1678 16.7881 9.93616 16.7881 10.8944C16.7881 14.1923 14.7679 14.9175 12.8427 15.1334C13.1535 15.401 13.4384 15.9276 13.4384 16.7305V19.096C13.4384 19.3291 13.5765 19.6054 14.0168 19.5277C17.4442 18.3708 19.9133 15.142 19.9133 11.3261C19.9133 10.1924 19.69 9.06974 19.2562 8.02231C18.8223 6.97488 18.1864 6.02316 17.3847 5.22149C16.583 4.41982 15.6313 3.7839 14.5839 3.35004C13.5364 2.91618 12.4138 2.69287 11.2801 2.69287Z" fill="black"/>
</g>
</svg>
