<svg width="32" height="33" viewBox="0 0 32 33" fill="none" xmlns="http://www.w3.org/2000/svg">
<g id="ph:medal">
<path id="Vector" d="M27 12.9013C27.0011 11.0476 26.5337 9.2236 25.6412 7.59884C24.7487 5.97408 23.4601 4.60121 21.895 3.60777C20.33 2.61432 18.5392 2.03251 16.6891 1.91638C14.839 1.80025 12.9896 2.15357 11.3125 2.94351C9.63553 3.73345 8.18535 4.9344 7.0967 6.43481C6.00805 7.93522 5.31624 9.68641 5.08553 11.5257C4.85482 13.3651 5.09268 15.2329 5.77704 16.9557C6.4614 18.6785 7.57004 20.2004 9 21.3801V30.9013C8.99988 31.0719 9.04338 31.2396 9.12636 31.3886C9.20934 31.5376 9.32905 31.6629 9.4741 31.7526C9.61916 31.8423 9.78474 31.8934 9.95511 31.901C10.1255 31.9087 10.295 31.8726 10.4475 31.7963L16 29.0263L21.5538 31.8026C21.693 31.8692 21.8457 31.903 22 31.9013C22.2652 31.9013 22.5196 31.796 22.7071 31.6084C22.8946 31.4209 23 31.1665 23 30.9013V21.3801C24.2512 20.3496 25.2587 19.0549 25.9503 17.589C26.6419 16.1231 27.0003 14.5222 27 12.9013ZM7 12.9013C7 11.1213 7.52784 9.38122 8.51677 7.90118C9.50571 6.42113 10.9113 5.26758 12.5559 4.58639C14.2004 3.9052 16.01 3.72697 17.7558 4.07424C19.5016 4.42151 21.1053 5.27867 22.364 6.53735C23.6226 7.79602 24.4798 9.39967 24.8271 11.1455C25.1743 12.8913 24.9961 14.7009 24.3149 16.3455C23.6337 17.99 22.4802 19.3956 21.0001 20.3845C19.5201 21.3735 17.78 21.9013 16 21.9013C13.6139 21.8987 11.3262 20.9496 9.63896 19.2623C7.95171 17.5751 7.00265 15.2874 7 12.9013ZM21 29.2838L16.4463 27.0076C16.3073 26.938 16.1541 26.9018 15.9988 26.9018C15.8434 26.9018 15.6902 26.938 15.5513 27.0076L11 29.2838V22.6976C12.548 23.4887 14.2616 23.9013 16 23.9013C17.7384 23.9013 19.452 23.4887 21 22.6976V29.2838ZM16 19.9013C17.3845 19.9013 18.7378 19.4908 19.889 18.7216C21.0401 17.9524 21.9373 16.8592 22.4672 15.5801C22.997 14.301 23.1356 12.8935 22.8655 11.5357C22.5954 10.1778 21.9287 8.93053 20.9497 7.95156C19.9708 6.97259 18.7235 6.30591 17.3656 6.03581C16.0078 5.76571 14.6003 5.90434 13.3212 6.43415C12.0421 6.96396 10.9489 7.86117 10.1797 9.01232C9.41054 10.1635 9 11.5168 9 12.9013C9.00199 14.7572 9.74012 16.5365 11.0524 17.8489C12.3648 19.1612 14.1441 19.8993 16 19.9013ZM16 7.90131C16.9889 7.90131 17.9556 8.19455 18.7779 8.74396C19.6001 9.29337 20.241 10.0743 20.6194 10.9879C20.9978 11.9015 21.0969 12.9069 20.9039 13.8768C20.711 14.8467 20.2348 15.7376 19.5355 16.4368C18.8363 17.1361 17.9454 17.6123 16.9755 17.8052C16.0055 17.9982 15.0002 17.8991 14.0866 17.5207C13.173 17.1423 12.3921 16.5014 11.8427 15.6792C11.2932 14.8569 11 13.8902 11 12.9013C11 11.5752 11.5268 10.3035 12.4645 9.36577C13.4021 8.42809 14.6739 7.90131 16 7.90131Z" fill="#EAECED"/>
</g>
</svg>
