<svg width="90" height="34" viewBox="0 0 90 34" fill="none" xmlns="http://www.w3.org/2000/svg">
<g id="Udemy svg" clip-path="url(#clip0_5_267)">
<path id="Vector" d="M13.9685 8.06535L6.98366 4.03268L0 8.06535V4.03268L6.9848 0L13.9696 4.03268V8.06535H13.9685Z" fill="#A435F0"/>
<path id="Vector_2" d="M0 11.4513H3.65859V20.3403C3.65859 22.6378 5.37351 23.7567 6.9848 23.7567C8.60844 23.7567 10.311 22.6074 10.311 20.3099V11.4513H13.9696V20.5522C13.9696 22.6682 13.3048 24.3009 11.9741 25.4198C10.6434 26.5386 8.98027 27.0829 6.95438 27.0829C4.92845 27.0829 3.26535 26.5386 1.96507 25.4198C0.664787 24.3009 0 22.7291 0 20.6423V11.4513Z" fill="white"/>
<path id="Vector_3" d="M45.6 22.4991C44.4925 23.4851 43.2304 23.9684 41.7915 23.9684C39.1684 23.9684 37.4073 22.4732 37.209 20.1577H49.031C49.031 20.1577 49.1087 19.4096 49.1087 18.7076C49.1087 16.5307 48.4137 14.7166 46.9927 13.2349C45.6021 11.7532 43.7882 11.0276 41.5808 11.0276C39.2529 11.0276 37.3476 11.7532 35.8355 13.2349C34.3538 14.7166 33.5977 16.6513 33.5977 19.0704V19.191C33.5977 21.5797 34.3538 23.4839 35.8355 24.9059C37.3172 26.3267 39.2823 27.0524 41.671 27.0524C44.4486 27.0524 46.6593 25.9572 48.3177 24.0676L45.6 22.4991ZM38.6468 15.0794C39.4625 14.444 40.4608 14.1115 41.5797 14.1115C42.6376 14.1115 43.5144 14.444 44.2703 15.1099C44.9928 15.716 45.3824 16.4608 45.4162 17.3172H37.3014C37.4186 16.4327 37.8659 15.6868 38.6468 15.0794Z" fill="white"/>
<path id="Vector_4" d="M82.4303 29.1065C80.9442 32.6108 79.3914 33.8029 77.0109 33.8029C76.6027 33.8029 75.3613 33.8029 75.3613 33.8029V30.56C75.3613 30.56 75.8759 30.56 76.6952 30.56C77.5145 30.56 78.2759 30.2524 79.0018 28.5769C79.7273 26.9015 79.7273 26.9015 79.7273 26.9015L73.4683 11.4513H77.1875L81.6326 22.5781L86.1985 11.4513H89.9176C89.9168 11.4513 83.9595 25.4997 82.4303 29.1065Z" fill="white"/>
<path id="Vector_5" d="M28.213 5.61572V12.8315C27.0141 11.7566 25.1493 11.1177 23.3454 11.1177C21.1989 11.1177 19.3848 11.8738 17.9032 13.4152C16.4519 14.9273 15.7263 16.8011 15.7263 19.0692C15.7263 21.3374 16.4519 23.2112 17.9032 24.7538C19.3848 26.2659 21.1989 27.0219 23.3454 27.0219C25.822 27.0219 27.3859 26.0496 28.213 25.2867V26.6895H31.8412V5.61572H28.213ZM27.1246 22.3966C26.2479 23.2732 25.1291 23.7273 23.8288 23.7273C22.5285 23.7273 21.4705 23.2732 20.5938 22.3966C19.7477 21.5199 19.324 20.4011 19.324 19.0704C19.324 17.7397 19.7477 16.6208 20.5938 15.7442C21.4705 14.8676 22.5285 14.4135 23.8288 14.4135C25.1291 14.4135 26.2479 14.8676 27.1246 15.7442C28.0316 16.6208 28.4857 17.7397 28.4857 19.0704C28.4857 20.4011 28.0316 21.5199 27.1246 22.3966Z" fill="white"/>
<path id="Vector_6" d="M67.8274 11.1493C65.0717 11.1493 63.6384 12.2929 62.6569 13.3938C62.2648 12.6456 61.1594 11.1493 58.5756 11.1493C56.3932 11.1493 55.1053 12.2524 54.4643 13.0389V11.4524H50.8665V26.6907H54.4643V17.9222C54.4643 15.8659 55.7341 14.3842 57.4276 14.3842C59.1515 14.3842 60.1487 15.6845 60.1487 17.7701V26.6895H63.7466V17.9211C63.7466 15.8344 64.9859 14.3831 66.7694 14.3831C68.4934 14.3831 69.4905 15.6833 69.4905 17.769V26.6884H73.1189V17.2552C73.1189 13.2822 70.9838 11.1493 67.8274 11.1493Z" fill="white"/>
</g>
<defs>
<clipPath id="clip0_5_267">
<rect width="90" height="33.8028" fill="white"/>
</clipPath>
</defs>
</svg>
