<svg width="91" height="43" viewBox="0 0 91 43" fill="none" xmlns="http://www.w3.org/2000/svg">
<path id="Vector" d="M0.783149 21.8959L0.795249 22.4134L0.80165 22.4105C1.13049 29.6487 4.48957 35.2786 9.46975 38.5486C14.5642 41.8937 21.3241 42.7497 28.2028 40.3766C34.8719 38.0761 40.2727 32.631 45.2196 27.6435C45.2879 27.5747 45.3561 27.5059 45.4242 27.4372C45.4392 27.4222 45.4524 27.4092 45.4643 27.398C45.4726 27.4059 45.4816 27.4148 45.4915 27.4248L45.7373 27.1834L45.4915 27.4248C49.9052 31.9181 53.6688 35.6042 58.0361 38.279C75.4574 48.95 95.8112 32.8421 88.7223 13.383C86.6009 7.55983 82.4494 3.68602 76.4929 1.9303L76.3955 2.26075L76.4929 1.9303C69.4257 -0.152676 63.3682 1.48845 58.2309 4.50878C53.3912 7.35415 49.35 11.435 46.0347 14.7829C45.8409 14.9786 45.6496 15.1717 45.4608 15.362C41.0863 10.9211 36.9795 6.81493 32.1324 4.0384L31.9612 4.33734L32.1324 4.0384C17.3206 -4.44585 0.421071 6.41257 0.783149 21.8959ZM9.96633 21.5824C9.94277 13.2283 18.3642 6.96853 27.3449 11.2481C29.679 12.3605 31.7827 14.0027 33.7938 15.8288C34.7988 16.7413 35.7772 17.6965 36.7488 18.6519C36.8561 18.7575 36.9634 18.8631 37.0706 18.9686C37.9064 19.7911 38.7388 20.6104 39.5755 21.3935C39.5215 21.449 39.4675 21.5045 39.4133 21.5602C37.2596 23.7743 34.9436 26.1551 32.4268 28.1648C29.8066 30.2569 26.9922 31.927 23.9514 32.5844C20.4303 33.3457 17.0414 32.7211 14.486 30.8587C11.9363 29.0006 10.1797 25.8835 9.96633 21.5824ZM51.3465 21.3677C51.4141 21.2983 51.4819 21.2286 51.5499 21.1587C53.6322 19.0189 55.8983 16.6901 58.3618 14.7039C60.9401 12.625 63.7109 10.9415 66.6786 10.2457C70.455 9.36022 73.9552 10.0534 76.5395 11.9778C79.1202 13.8995 80.8224 17.0747 80.958 21.226C80.9687 26.9712 76.9095 31.8114 71.3501 32.7474C67.1783 33.4499 63.5301 31.8814 60.2259 29.4737C57.8713 27.758 55.7278 25.6462 53.707 23.6553C52.9026 22.8628 52.1176 22.0894 51.3465 21.3677Z" fill="white" stroke="white" stroke-width="0.689024"/>
</svg>
